<svg xmlns="http://www.w3.org/2000/svg" version="1.1" xmlnsXlink="http://www.w3.org/1999/xlink" xmlnsSvgjs="http://svgjs.dev/svgjs" width="2000" height="1247" viewBox="0 0 2000 1247"><g transform="matrix(1,0,0,1,-1.2121212121212466,0.504858299595071)"><svg viewBox="0 0 396 247" data-background-color="#ffffff" preserveAspectRatio="xMidYMid meet" height="1247" width="2000" xmlns="http://www.w3.org/2000/svg" xmlnsXlink="http://www.w3.org/1999/xlink"><defs></defs><g id="tight-bounds" transform="matrix(1,0,0,1,0.2400000000000091,-0.09999999999999432)"><svg viewBox="0 0 395.52 247.2" height="247.2" width="395.52"><g><svg></svg></g><g><svg viewBox="0 0 395.52 247.2" height="247.2" width="395.52"><g transform="matrix(1,0,0,1,75.54432000000001,83.13503677635998)"><svg viewBox="0 0 244.43135999999996 80.92992644728004" height="80.92992644728004" width="244.43135999999996"><g><svg viewBox="0 0 244.43135999999996 80.92992644728004" height="80.92992644728004" width="244.43135999999996"><g><svg viewBox="0 0 244.43136 80.92992644728005" height="80.92992644728004" width="244.43135999999996"><g><svg viewBox="0 0 244.43136 80.92992644728005" height="80.92992644728005" width="244.43136"><g><svg viewBox="0 0 244.43136 80.92992644728005" height="80.92992644728005" width="244.43136"><g><svg viewBox="0 0 244.43136 80.92992644728005" height="80.92992644728005" width="244.43136"><g transform="matrix(1,0,0,1,0,0)"><svg width="244.43136" viewBox="0.9800000190734863 -35.349998474121094 109.04999542236328 36.1099967956543" height="80.92992644728005" data-palette-color="#2b2b2b"><path d="M1.17 0L1.17 0Q1.05 0 1.01-0.07 0.98-0.15 0.98-0.2L0.98-0.2 0.98-1.51Q0.98-1.56 1-1.64 1.03-1.71 1.17-1.71L1.17-1.71 1.76-1.71Q1.83-1.71 2.23-1.75 2.64-1.78 3.16-1.87 3.69-1.95 4.25-2.1 4.81-2.25 5.2-2.47L5.2-2.47Q6.05-2.95 6.47-3.72 6.88-4.49 6.88-5.44L6.88-5.44 6.88-29.81Q6.88-30.69 6.31-31.25 5.74-31.81 4.94-32.14 4.15-32.47 3.33-32.59 2.51-32.71 2.03-32.71L2.03-32.71 1.49-32.71Q1.37-32.71 1.33-32.8 1.29-32.89 1.29-32.91L1.29-32.91 1.29-34.23Q1.29-34.28 1.33-34.35 1.37-34.42 1.49-34.42L1.49-34.42 20.21-34.42Q20.34-34.42 20.37-34.35 20.41-34.28 20.41-34.23L20.41-34.23 20.41-32.91Q20.41-32.86 20.37-32.79 20.34-32.71 20.21-32.71L20.21-32.71 19.17-32.71Q17.8-32.71 16.63-32.5 15.45-32.28 14.72-32.01L14.72-32.01Q14.16-31.81 14-31.36 13.84-30.91 13.84-29.81L13.84-29.81 13.84-4.2Q13.89-3.78 14.28-3.42 14.67-3.05 15.16-3.05L15.16-3.05 23.71-3.05Q24.56-3.05 25.33-3.42 26.1-3.78 26.76-4.36 27.42-4.93 27.98-5.62 28.54-6.3 29-6.93 29.47-7.57 29.83-8.07 30.2-8.57 30.47-8.79L30.47-8.79Q30.59-8.86 30.75-8.94 30.91-9.01 31.13-9.01L31.13-9.01Q31.54-9.01 31.54-8.69L31.54-8.69Q31.54-8.54 31.47-8.4L31.47-8.4 27.42-0.44Q27.32-0.24 27.2-0.12 27.08 0 26.9 0L26.9 0 1.17 0ZM57.66-9.28L60.59-4.25Q61.11-3.37 61.75-2.7 62.4-2.03 63.21-2.03L63.21-2.03Q63.45-2.03 63.94-2.19 64.43-2.34 64.95-2.55 65.48-2.76 65.96-2.92 66.45-3.08 66.72-3.08L66.72-3.08Q67.06-3.08 67.27-2.95 67.48-2.83 67.58-2.69 67.67-2.54 67.7-2.4 67.72-2.27 67.72-2.22L67.72-2.22Q67.72-2.12 67.65-1.92 67.58-1.71 67.19-1.44L67.19-1.44Q65.82-0.56 64.24 0.1 62.67 0.76 60.81 0.76L60.81 0.76Q59.64 0.76 58.76 0.38 57.88 0 57.19-0.61 56.49-1.22 55.92-2.01 55.34-2.81 54.81-3.64L54.81-3.64Q54.56-3.98 54.33-4.35 54.1-4.71 53.83-5.08L53.83-5.08Q52.66-4.05 51.28-3.03 49.9-2 48.37-1.18 46.85-0.37 45.2 0.15 43.55 0.66 41.82 0.66L41.82 0.66Q39.79 0.66 38.05-0.2 36.3-1.05 35.02-2.44 33.74-3.83 33.01-5.6 32.27-7.37 32.27-9.2L32.27-9.2Q32.27-11.06 32.97-12.55 33.66-14.04 34.9-15.27 36.13-16.5 37.79-17.48 39.45-18.46 41.4-19.29L41.4-19.29Q40.57-20.12 39.9-20.92 39.23-21.73 38.77-22.56 38.3-23.39 38.06-24.29 37.81-25.2 37.81-26.27L37.81-26.27Q37.81-27.88 38.54-29.09 39.26-30.3 40.43-31.12 41.6-31.93 43.09-32.34 44.58-32.74 46.12-32.74L46.12-32.74Q47.46-32.74 48.8-32.3 50.14-31.86 51.22-31.07 52.29-30.27 52.95-29.14 53.61-28 53.61-26.61L53.61-26.61Q53.61-25.49 53.15-24.52 52.68-23.56 51.95-22.74 51.22-21.92 50.29-21.25 49.36-20.58 48.44-20.04L48.44-20.04Q48.34-19.97 48.3-19.95 48.26-19.92 48.26-19.85L48.26-19.85Q48.26-19.73 48.41-19.63L48.41-19.63Q48.51-19.56 48.97-19.14 49.44-18.73 50.34-17.82 51.24-16.92 52.61-15.45 53.98-13.99 55.86-11.82L55.86-11.82 61.11-19.75Q61.33-20.09 61.45-20.39 61.57-20.68 61.57-21.12L61.57-21.12Q61.57-21.73 61.28-21.9 60.98-22.07 60.67-22.12L60.67-22.12Q60.32-22.19 60.01-22.25 59.69-22.31 59.45-22.42 59.2-22.53 59.06-22.72 58.91-22.9 58.91-23.17L58.91-23.17Q58.91-23.27 58.92-23.4 58.93-23.54 59.04-23.67 59.15-23.8 59.37-23.89 59.59-23.97 60.01-23.97L60.01-23.97 69.55-23.97Q69.82-23.56 69.87-23.34 69.92-23.12 69.92-23.07L69.92-23.07Q69.92-22.53 69.63-22.36 69.33-22.19 68.82-22.14L68.82-22.14Q68.26-22.07 67.69-22.01 67.11-21.95 66.57-21.8 66.04-21.66 65.56-21.35 65.09-21.04 64.74-20.51L64.74-20.51 57.66-9.28ZM44.16-2.98L44.16-2.98Q45.24-2.98 46.31-3.39 47.39-3.81 48.4-4.41 49.41-5 50.36-5.7 51.32-6.4 52.12-6.98L52.12-6.98Q52.39-7.18 52.39-7.35L52.39-7.35Q52.39-7.42 52.34-7.52L52.34-7.52Q50.58-10.64 48.39-13.11 46.19-15.58 43.6-17.72L43.6-17.72Q43.48-17.68 43.19-17.5 42.89-17.33 42.7-17.21L42.7-17.21Q41.75-16.65 40.95-15.82 40.16-14.99 39.58-13.98 39.01-12.96 38.69-11.8 38.38-10.64 38.38-9.47L38.38-9.47Q38.38-8.23 38.83-7.06 39.28-5.88 40.07-4.98 40.87-4.08 41.92-3.53 42.97-2.98 44.16-2.98ZM43.11-27.22L43.11-27.22Q43.11-26.37 43.34-25.54 43.58-24.71 43.98-23.97 44.38-23.24 44.94-22.62 45.51-22 46.16-21.53L46.16-21.53Q46.75-21.75 47.21-22.31 47.68-22.88 48-23.57 48.31-24.27 48.48-25.01 48.65-25.76 48.65-26.37L48.65-26.37Q48.65-27.25 48.5-28.02 48.34-28.78 47.98-29.35 47.63-29.91 47.07-30.22 46.51-30.54 45.68-30.54L45.68-30.54Q44.43-30.54 43.77-29.59 43.11-28.64 43.11-27.22ZM73.38-17.5L73.38-17.5Q73.38-19.97 74.04-22.24 74.7-24.51 75.9-26.5 77.09-28.49 78.77-30.11 80.44-31.74 82.44-32.91 84.44-34.08 86.73-34.72 89.01-35.35 91.43-35.35L91.43-35.35Q92.72-35.35 94.06-35.19 95.41-35.03 96.69-34.79 97.97-34.55 99.12-34.25 100.26-33.96 101.13-33.72 102-33.47 102.55-33.31 103.1-33.15 103.17-33.15L103.17-33.15 103.46-33.15Q103.66-33.15 103.77-33.19 103.88-33.23 103.96-33.28 104.05-33.33 104.15-33.36 104.24-33.4 104.44-33.4L104.44-33.4 105.41-33.4Q105.46-33.4 105.57-33.36 105.68-33.33 105.68-33.13L105.68-33.13 105.68-25Q105.68-24.73 105.45-24.63 105.22-24.54 105.05-24.54L105.05-24.54Q104.83-24.56 104.66-24.78 104.49-25 104.34-25.27 104.19-25.54 104.1-25.78 104-26.03 103.97-26.15L103.97-26.15Q103.36-28.05 102.25-29.36 101.14-30.66 99.64-31.49 98.14-32.32 96.35-32.69 94.55-33.06 92.57-33.06L92.57-33.06Q89.18-33.06 86.91-31.81 84.64-30.57 83.26-28.47 81.88-26.37 81.31-23.62 80.73-20.87 80.73-17.85L80.73-17.85Q80.73-15.77 81.15-13.77 81.56-11.77 82.33-9.97 83.1-8.18 84.2-6.68 85.3-5.18 86.65-4.09 88.01-3 89.58-2.39 91.16-1.78 92.91-1.78L92.91-1.78Q94.89-1.78 96.39-2.21 97.9-2.64 98.82-3.88L98.82-3.88 98.82-9.28Q98.82-10.33 98.57-11.15 98.31-11.96 97.63-12.52 96.94-13.09 95.77-13.38 94.6-13.67 92.77-13.67L92.77-13.67Q92.62-13.67 92.56-13.95 92.5-14.23 92.5-14.43L92.5-14.43Q92.5-14.55 92.56-14.84 92.62-15.14 92.77-15.14L92.77-15.14 109.76-15.14Q109.96-15.14 109.99-14.86 110.03-14.58 110.03-14.43L110.03-14.43Q110.03-14.31 109.98-14.04 109.93-13.77 109.76-13.67L109.76-13.67Q109.1-13.4 108.41-13.21 107.71-13.01 107.12-12.7 106.54-12.38 106.16-11.83 105.78-11.28 105.78-10.33L105.78-10.33 105.78-3.2Q105.78-3 105.62-2.88 105.46-2.76 105.12-2.61L105.12-2.61Q103.75-1.95 102.02-1.37 100.29-0.78 98.46-0.33 96.63 0.12 94.82 0.39 93.01 0.66 91.52 0.66L91.52 0.66Q87.74 0.66 84.44-0.6 81.15-1.86 78.68-4.21 76.22-6.57 74.8-9.94 73.38-13.31 73.38-17.5Z" opacity="1" transform="matrix(1,0,0,1,0,0)" fill="#2b2b2b" class="undefined-text-0" data-fill-palette-color="primary" id="text-0"></path></svg></g></svg></g></svg></g></svg></g></svg></g></svg></g></svg></g><path d="M213.449 77.135L213.449 22.187 10.624 22.187 10.624 225.013 213.449 225.013 213.449 170.065 206.151 170.065 206.151 217.714 17.922 217.714 17.922 29.486 206.151 29.486 206.151 77.135Z" fill="#2b2b2b" stroke="transparent" data-fill-palette-color="primary"></path></svg></g></svg><rect width="395.52" height="247.2" fill="none" stroke="none" visibility="hidden"></rect></g></svg></g></svg>